<svg width="480" height="523" viewBox="0 0 480 523" fill="none" xmlns="http://www.w3.org/2000/svg">
<path fill-rule="evenodd" clip-rule="evenodd" d="M239.583 47.9167C188.75 47.9167 139.999 68.1101 104.055 104.055C68.1101 139.999 47.9167 188.75 47.9167 239.583C47.9167 290.416 68.1101 339.168 104.055 375.112C139.999 411.057 188.75 431.25 239.583 431.25C290.416 431.25 339.168 411.057 375.112 375.112C411.057 339.168 431.25 290.416 431.25 239.583C431.25 188.75 411.057 139.999 375.112 104.055C339.168 68.1101 290.416 47.9167 239.583 47.9167ZM0 239.583C0 107.261 107.261 0 239.583 0C371.905 0 479.167 107.261 479.167 239.583C479.167 371.905 371.905 479.167 239.583 479.167C107.261 479.167 0 371.905 0 239.583ZM155.729 191.667C151.057 191.667 145.092 194.637 141.21 202.4C138.334 208.03 133.35 212.295 127.343 214.265C121.336 216.236 114.793 215.752 109.141 212.92C103.489 210.088 99.1856 205.136 97.1686 199.145C95.1516 193.153 95.5844 186.607 98.3729 180.933C108.819 160.042 129.686 143.75 155.729 143.75C181.772 143.75 202.616 160.042 213.085 180.933C215.874 186.607 216.307 193.153 214.29 199.145C212.273 205.136 207.969 210.088 202.317 212.92C196.665 215.752 190.123 216.236 184.116 214.265C178.109 212.295 173.124 208.03 170.248 202.4C166.367 194.637 160.425 191.667 155.729 191.667ZM323.437 191.667C318.766 191.667 312.8 194.637 308.919 202.4C307.524 205.238 305.582 207.771 303.203 209.855C300.825 211.938 298.057 213.53 295.061 214.539C292.064 215.548 288.898 215.953 285.743 215.732C282.589 215.512 279.51 214.669 276.683 213.252C273.856 211.835 271.338 209.873 269.273 207.479C267.208 205.084 265.638 202.305 264.652 199.3C263.667 196.296 263.285 193.126 263.531 189.974C263.776 186.822 264.643 183.749 266.081 180.933C276.551 160.042 297.395 143.75 323.437 143.75C349.48 143.75 370.324 160.042 380.794 180.933C383.582 186.607 384.015 193.153 381.998 199.145C379.981 205.136 375.678 210.088 370.026 212.92C364.373 215.752 357.831 216.236 351.824 214.265C345.817 212.295 340.832 208.03 337.956 202.4C334.075 194.637 328.133 191.667 323.437 191.667ZM158.221 295.598C160.303 293.237 162.83 291.31 165.657 289.926C168.485 288.543 171.557 287.73 174.699 287.534C177.84 287.338 180.99 287.763 183.967 288.785C186.944 289.807 189.691 291.406 192.05 293.49C204.748 304.702 221.351 311.458 239.583 311.458C257.816 311.458 274.443 304.702 287.117 293.49C291.882 289.283 298.124 287.142 304.468 287.537C310.812 287.933 316.739 290.832 320.946 295.598C325.152 300.364 327.293 306.605 326.898 312.949C326.503 319.293 323.603 325.221 318.837 329.427C296.973 348.769 268.775 359.424 239.583 359.375C210.391 359.424 182.194 348.769 160.329 329.427C157.968 327.345 156.041 324.818 154.658 321.991C153.274 319.163 152.461 316.091 152.265 312.949C152.069 309.808 152.494 306.658 153.516 303.681C154.538 300.704 156.137 297.957 158.221 295.598Z" fill="white"/>
</svg>
