<svg width="455" height="455" viewBox="0 0 455 455" fill="none" xmlns="http://www.w3.org/2000/svg">
<path d="M227.5 0C102.057 0 0 102.057 0 227.5C0 352.944 102.057 455 227.5 455C352.944 455 455 352.944 455 227.5C455 102.057 352.944 0 227.5 0ZM227.5 409.5C127.15 409.5 45.5 327.85 45.5 227.5C45.5 127.15 127.15 45.5 227.5 45.5C327.85 45.5 409.5 127.15 409.5 227.5C409.5 327.85 327.85 409.5 227.5 409.5Z" fill="white"/>
<path d="M147.875 227.5C166.722 227.5 182 212.222 182 193.375C182 174.528 166.722 159.25 147.875 159.25C129.028 159.25 113.75 174.528 113.75 193.375C113.75 212.222 129.028 227.5 147.875 227.5Z" fill="white"/>
<path d="M306.966 227.182C325.725 227.182 340.932 211.975 340.932 193.216C340.932 174.457 325.725 159.25 306.966 159.25C288.207 159.25 273 174.457 273 193.216C273 211.975 288.207 227.182 306.966 227.182Z" fill="white"/>
<path d="M227.5 364C318.5 364 341.25 273 341.25 273H113.75C113.75 273 136.5 364 227.5 364Z" fill="white"/>
</svg>
