<svg width="470" height="470" viewBox="0 0 470 470" fill="none" xmlns="http://www.w3.org/2000/svg">
<path d="M234.583 0C364.144 0 469.167 105.023 469.167 234.583C469.167 364.144 364.144 469.167 234.583 469.167C105.023 469.167 0 364.144 0 234.583C0 105.023 105.023 0 234.583 0ZM234.583 46.9167C184.811 46.9167 137.077 66.6886 101.883 101.883C66.6886 137.077 46.9167 184.811 46.9167 234.583C46.9167 284.356 66.6886 332.089 101.883 367.284C137.077 402.478 184.811 422.25 234.583 422.25C284.356 422.25 332.089 402.478 367.284 367.284C402.478 332.089 422.25 284.356 422.25 234.583C422.25 184.811 402.478 137.077 367.284 101.883C332.089 66.6886 284.356 46.9167 234.583 46.9167ZM234.583 258.042C264.328 258.042 291.517 269.137 312.183 287.365C316.85 291.483 319.689 297.287 320.076 303.499C320.463 309.71 318.366 315.822 314.248 320.488C310.129 325.154 304.326 327.993 298.114 328.38C291.902 328.767 285.791 326.671 281.125 322.552C268.271 311.216 251.722 304.96 234.583 304.958C216.732 304.958 200.451 311.574 188.042 322.552C185.732 324.59 183.042 326.153 180.128 327.151C177.214 328.15 174.131 328.564 171.056 328.372C167.982 328.179 164.975 327.382 162.208 326.028C159.441 324.673 156.968 322.786 154.931 320.476C152.893 318.166 151.33 315.476 150.331 312.562C149.333 309.648 148.918 306.565 149.111 303.49C149.304 300.416 150.1 297.409 151.455 294.642C152.81 291.875 154.696 289.402 157.007 287.365C178.432 268.469 206.016 258.043 234.583 258.042ZM148.726 142.158L151.236 143.237L198.153 166.695C203.508 169.369 207.639 173.99 209.699 179.611C211.759 185.231 211.592 191.427 209.233 196.929C206.873 202.431 202.499 206.822 197.007 209.204C191.515 211.586 185.32 211.778 179.691 209.741L177.181 208.638L130.264 185.18C125.136 182.598 121.134 178.226 119.014 172.891C116.893 167.555 116.803 161.628 118.761 156.231C120.718 150.834 124.586 146.342 129.633 143.605C134.68 140.869 140.555 140.079 146.145 141.383L148.726 142.134V142.158ZM317.931 143.237C323.28 140.58 329.44 140.064 335.157 141.793C340.873 143.522 345.715 147.367 348.694 152.542C351.674 157.718 352.568 163.835 351.193 169.647C349.818 175.459 346.278 180.528 341.295 183.82L338.903 185.18L291.986 208.638C286.637 211.295 280.476 211.811 274.76 210.082C269.044 208.353 264.202 204.508 261.222 199.333C258.242 194.157 257.349 188.04 258.724 182.228C260.099 176.416 263.638 171.347 268.621 168.055L271.014 166.695L317.931 143.237Z" fill="#2B0000"/>
</svg>
