<svg width="485" height="485" viewBox="0 0 485 485" fill="none" xmlns="http://www.w3.org/2000/svg">
<path fill-rule="evenodd" clip-rule="evenodd" d="M242.083 0C375.786 0 484.167 108.381 484.167 242.083C484.167 375.786 375.786 484.167 242.083 484.167C108.381 484.167 0 375.786 0 242.083C0 108.381 108.381 0 242.083 0ZM242.083 48.4167C190.72 48.4167 141.46 68.8208 105.14 105.14C68.8208 141.46 48.4167 190.72 48.4167 242.083C48.4167 293.447 68.8208 342.707 105.14 379.026C141.46 415.346 190.72 435.75 242.083 435.75C293.447 435.75 342.707 415.346 379.026 379.026C415.346 342.707 435.75 293.447 435.75 242.083C435.75 190.72 415.346 141.46 379.026 105.14C342.707 68.8208 293.447 48.4167 242.083 48.4167ZM242.083 266.292C272.755 266.292 300.837 277.742 322.164 296.552C326.98 300.802 329.909 306.792 330.309 313.202C330.709 319.612 328.545 325.919 324.295 330.734C320.044 335.55 314.055 338.479 307.645 338.879C301.235 339.278 294.928 337.115 290.113 332.865C276.848 321.166 259.77 314.71 242.083 314.708C223.661 314.708 206.86 321.535 194.054 332.865C191.67 334.968 188.895 336.58 185.887 337.611C182.879 338.641 179.698 339.069 176.525 338.87C173.352 338.671 170.25 337.849 167.394 336.451C164.539 335.053 161.987 333.106 159.884 330.722C157.781 328.338 156.168 325.563 155.138 322.555C154.107 319.547 153.679 316.366 153.878 313.193C154.077 310.02 154.899 306.918 156.297 304.062C157.695 301.207 159.642 298.655 162.026 296.552C184.137 277.053 212.603 266.293 242.083 266.292ZM157.354 145.25C166.985 145.25 176.221 149.076 183.031 155.886C189.841 162.696 193.667 171.932 193.667 181.562C193.667 191.193 189.841 200.429 183.031 207.239C176.221 214.049 166.985 217.875 157.354 217.875C147.723 217.875 138.487 214.049 131.677 207.239C124.867 200.429 121.042 191.193 121.042 181.562C121.042 171.932 124.867 162.696 131.677 155.886C138.487 149.076 147.723 145.25 157.354 145.25ZM326.812 145.25C336.443 145.25 345.679 149.076 352.489 155.886C359.299 162.696 363.125 171.932 363.125 181.562C363.125 191.193 359.299 200.429 352.489 207.239C345.679 214.049 336.443 217.875 326.812 217.875C317.182 217.875 307.946 214.049 301.136 207.239C294.326 200.429 290.5 191.193 290.5 181.562C290.5 171.932 294.326 162.696 301.136 155.886C307.946 149.076 317.182 145.25 326.812 145.25Z" fill="white"/>
</svg>
