<svg width="513" height="242" viewBox="0 0 513 242" fill="none" xmlns="http://www.w3.org/2000/svg">
<path d="M44.5743 216.758C9.29009 204.298 -7.8554 166.531 3.45975 136.525C12.6587 112.036 39.6942 95.6535 69.1049 98.4559C69.58 96.3433 72.2144 85.3495 83.0545 78.4945C95.1038 70.8635 107.671 74.5281 109.485 75.0886C122.528 36.1144 155.35 7.40113 194.392 1.23596C240.819 -6.09326 288.368 19.6883 309.487 64.9139C355.266 59.7404 395.603 92.9805 399.663 134.973C403.29 172.438 377.335 209.213 337.775 219C240.041 218.267 142.308 217.491 44.5743 216.758Z" fill="#AA8BE9"/>
<path d="M191.452 239.032C140.103 219.289 119.434 161.995 139.671 122.25C155.81 90.5488 196.759 72.4831 237.709 82.6773C245.476 51.9656 272.402 30.1146 303.082 29.0393C330.828 28.093 356.891 44.3092 368.93 70.1174C388.218 56.482 414.453 58.8908 430.246 75.15C444.831 90.1187 447.463 113.733 436.287 132.272C468.132 121.906 501.703 139.8 510.679 168.834C520.215 199.718 499.503 235.333 464.422 242C373.417 241.011 282.456 239.978 191.452 238.989V239.032Z" fill="#FFF2F2"/>
</svg>
