<svg width="208" height="105" viewBox="0 0 208 105" fill="none" xmlns="http://www.w3.org/2000/svg">
<path d="M17.463 104.957C4.27359 101.439 -3.03 87.3887 1.20178 75.226C5.21876 63.6639 18.4726 57.057 30.7384 61.2399C28.268 51.7157 32.1991 41.7409 40.2545 36.7428C47.4292 32.281 56.752 32.4956 64.0341 37.2362C63.5615 19.5177 75.4836 4.22311 91.3152 0.748046C109.553 -3.26329 129.337 9.22122 133.612 29.4924C143.493 23.0142 155.973 24.5158 162.633 32.0022C170.215 40.4968 166.564 52.4664 166.392 53.0027C182.632 45.0015 201.642 53.3888 206.69 68.2544C211.352 82.0045 203.253 98.8221 187.422 103.992C130.776 104.335 74.1303 104.657 17.4845 105L17.463 104.957Z" fill="#FFF2F2"/>
</svg>
