<svg width="321" height="193" viewBox="0 0 321 193" fill="none" xmlns="http://www.w3.org/2000/svg">
<path d="M32.5744 192.929C9.80566 185.414 -3.43449 162.834 0.776662 141.893C4.167 124.94 18.5492 111.264 36.964 107.667C37.2139 105.031 38.8198 90.8206 51.3105 80.9197C66.4064 68.9174 84.3574 73.5474 86.2488 74.0816C85.6778 69.8434 82.8228 45.554 99.9529 24.2919C119.51 0.00244209 148.774 -0.0331732 152.343 0.0024418C159.266 0.643511 180.928 3.52833 199.736 21.1577C215.01 35.475 220.328 52.0003 222.183 59.1233C226.323 56.9508 237.993 51.5729 252.732 54.1372C260.94 55.5618 267.079 58.9452 270.754 61.367C273.395 62.9341 282.139 68.6681 286.421 80.2786C290.918 92.4945 287.421 103.037 286.421 105.815C289.812 106.527 303.266 109.768 312.616 122.625C319.861 132.633 320.646 142.925 320.717 146.914C321.003 149.087 323.251 169.352 308.227 183.028C299.662 190.827 289.812 192.537 285.779 193H32.5744V192.929Z" fill="#804ECE"/>
</svg>
